<svg xmlns="http://www.w3.org/2000/svg" viewBox="0 0 1146.01 458.37"><defs><style>.cls-1{isolation:isolate;}.cls-2{fill:#a6bfa0;}.cls-3{fill:#0d0d0d;}.cls-4{fill:#6b9560;}.cls-5{mix-blend-mode:multiply;}.cls-6{fill:#a6a6a6;}</style></defs><g class="cls-1"><g id="Logo"><path class="cls-2" d="M343.06,77.21H234.43A22.43,22.43,0,0,0,215,88.43l-54.32,94.08a22.43,22.43,0,0,0,0,22.44L215,299a22.45,22.45,0,0,0,19.43,11.22H343.06A22.43,22.43,0,0,0,362.49,299L416.81,205a22.43,22.43,0,0,0,0-22.44L362.5,88.43A22.45,22.45,0,0,0,343.06,77.21Z"/><path class="cls-3" d="M492.72,255.37c10.48,0,19.35-4.57,19.35-17.2v-4.3a33,33,0,0,1,.27-3.63h-.27c-4,6-9.94,9.54-19.08,9.54-19.75,0-30.77-15.85-30.77-34.66S472.83,171,492.58,171c8.2,0,17.47,3.09,21.23,10.34h.27a9.09,9.09,0,0,1-.27-2.28c0-3.63,2.42-6.45,7.79-6.45h17.06v12.76h-6.58c-1.75,0-3,.94-3,2.69V237c0,23.51-18.27,32.38-36.14,32.38a55.68,55.68,0,0,1-24.45-5.91l5.24-12.63A44.31,44.31,0,0,0,492.72,255.37Zm19.75-50.11c0-15.58-7.79-19.75-16.93-19.75-10.34,0-16.12,7.52-16.12,19.08,0,12,6.18,20.82,17.2,20.82C504.68,225.41,512.47,220.71,512.47,205.26Z"/><path class="cls-3" d="M546.45,228.36h9.94v-40a2.69,2.69,0,0,0-3-3h-7.66V172.6h17.87c6.05,0,9.14,2.55,9.14,8.33v4a31.17,31.17,0,0,1-.27,4.3h.27c3.09-9.81,11.29-17.6,21.77-17.6a19.48,19.48,0,0,1,3.09.27v16.79a30.21,30.21,0,0,0-4.16-.27c-13.84,0-20,12.09-20,25v14.91h9.81v12.76H546.46V228.36Z"/><path class="cls-3" d="M639.2,198.81h4.3v-2.28c0-8.73-5.51-11.82-12.63-11.82-10.21,0-19.35,6.58-19.35,6.58l-6.32-11.82A46.57,46.57,0,0,1,632.34,171c18.41,0,28.21,9.54,28.21,27v27.41a2.63,2.63,0,0,0,3,3h6.18v12.76H653.57c-6.31,0-8.73-3.36-8.73-7.26v-.81a13.38,13.38,0,0,1,.4-3.49H645a23.86,23.86,0,0,1-21.63,13.17c-11.69,0-22.71-6.85-22.71-20.82C600.65,201,628.19,198.81,639.2,198.81ZM627.78,230c9.27,0,15.85-9.94,15.85-18.54v-2.28h-2.82c-6.72,0-23,1.07-23,11.42C617.84,225.68,621.47,230,627.78,230Z"/><path class="cls-3" d="M681.75,255.23V188.32a2.7,2.7,0,0,0-3-3h-7.66V172.6h17.6c6.31,0,8.46,3,8.46,6.45v.4c0,1.61-.13,3.09-.13,3.09h.27s5.91-11.55,22-11.55c18.54,0,30.36,14.64,30.36,35.87,0,21.76-13.3,35.87-31.3,35.87a23.91,23.91,0,0,1-19.75-9.67h-.27a40,40,0,0,1,.4,5.91v16.26h9.94V268h-37V255.24h10Zm33.59-26.87c9.4,0,17.2-7.66,17.2-21.23,0-13-7-21.5-17.06-21.5-8.87,0-17.2,6.45-17.2,21.63C698.28,217.88,704.19,228.36,715.34,228.36Z"/><path class="cls-3" d="M754.37,228.36h9.94V158.5H753.7V145.74h27.68v33.32a39.22,39.22,0,0,1-.4,5.78h.27A26.75,26.75,0,0,1,804.9,171c15.18,0,23.92,7.93,23.92,26.06v31.3h9.94v12.76h-27V200.55c0-8.33-2.15-14-10.75-14-12.09,0-19.62,10.48-19.62,23.11v18.68h9.81v12.76H754.38V228.36Z"/><path class="cls-3" d="M877.32,171c19.75,0,30.5,14.38,30.5,32.51,0,2-.4,5.78-.4,5.78H860c1.08,12.63,10.21,19.08,20.56,19.08,11.15,0,19.88-7.26,19.88-7.26L907,233.2a43.62,43.62,0,0,1-27.68,9.54c-22.71,0-36.81-16.39-36.81-35.87C842.52,185.77,856.76,171,877.32,171Zm12.89,28.21c-.27-9.4-6.05-15.05-13.3-15.05-8.73,0-14.91,6.05-16.52,15.05Z"/><path class="cls-3" d="M915.55,228.36h9.94v-40a2.7,2.7,0,0,0-3-3h-7.66V172.6h18c6,0,8.87,2.82,8.87,7.66v3.09a18.91,18.91,0,0,1-.27,3h.27C942.55,184.16,949.8,171,967,171c14.64,0,23,7.93,23,26.06v31.3h9.94v12.76H973V200.54c0-8.33-2.28-14-10.88-14-12.36,0-19.61,11.82-19.61,23.78v18h9.81v12.76H915.55Z"/><path class="cls-3" d="M1038.57,171c19.75,0,30.5,14.38,30.5,32.51,0,2-.4,5.78-.4,5.78h-47.43c1.08,12.63,10.21,19.08,20.56,19.08,11.15,0,19.89-7.26,19.89-7.26l6.58,12.09a43.62,43.62,0,0,1-27.68,9.54c-22.71,0-36.81-16.39-36.81-35.87C1003.77,185.77,1018,171,1038.57,171Zm12.9,28.21c-.27-9.4-6-15.05-13.3-15.05-8.73,0-14.91,6.05-16.52,15.05Z"/><path class="cls-3" d="M462,330.11h14.51v4c0,4.7,6.31,7.12,13.44,7.12,6.85,0,11.69-2.42,11.69-7,0-5.78-6.45-7.26-15.58-10.61-10.08-3.49-21.63-8.2-21.63-21.23,0-14.51,14.51-19.62,27-19.62,9.94,0,24.72,3.9,24.72,14.24v8.73H501.47v-3.9c0-3.49-4-5.64-10.08-5.64-5.37,0-9.94,1.88-9.94,6.18,0,5.64,6.72,7.93,14.38,10.21,10.48,3.36,22.84,7.66,22.84,21.09,0,13.84-13.17,20.82-28.89,20.82-12.49,0-27.81-5.37-27.81-16.53v-7.9Z"/><path class="cls-3" d="M560.49,282.81c19.75,0,30.5,14.38,30.5,32.51,0,2-.4,5.78-.4,5.78H543.16c1.07,12.63,10.21,19.08,20.56,19.08,11.15,0,19.88-7.26,19.88-7.26L590.18,345a43.62,43.62,0,0,1-27.68,9.54c-22.71,0-36.81-16.39-36.81-35.87C525.69,297.59,539.93,282.81,560.49,282.81ZM573.39,311c-.27-9.4-6-15-13.3-15-8.73,0-14.91,6-16.53,15Z"/><path class="cls-3" d="M635.55,282.81c11.42,0,28.08,4.3,28.08,16.39v9.4H648.85V304c0-4.57-7-6.72-12.76-6.72-12.5,0-20.15,8.6-20.15,21.09,0,14.11,9.81,21.77,21.5,21.77,9.67,0,17.6-5.37,21.36-8.33l6.05,12.09c-4.7,4.43-15.32,10.61-28.35,10.61-20,0-37.75-13.57-37.75-35.74C598.74,298.4,614.46,282.81,635.55,282.81Z"/><path class="cls-3" d="M680.8,297.19H670.19V284.43h27.68v41.11c0,8.2,2.15,13.84,10.75,13.84,11.82,0,18.94-12.09,18.94-24.45V297.2H717.08V284.44h27.54v52.93a2.69,2.69,0,0,0,3,3h6.58V353H737.23c-6.05,0-8.87-2.82-8.87-7.66v-2.55c0-1.75.13-3.22.13-3.22h-.27c-.81,2.28-7.79,15.05-25,15.05-13.7,0-22.44-7.39-22.44-26.06V297.19Z"/><path class="cls-3" d="M761.57,340.18h9.94v-40a2.69,2.69,0,0,0-3-3H760.9V284.42h17.87c6.05,0,9.14,2.55,9.14,8.33v4a31.17,31.17,0,0,1-.27,4.3h.27c3.09-9.81,11.29-17.6,21.76-17.6a19.48,19.48,0,0,1,3.09.27v16.79a30.21,30.21,0,0,0-4.16-.27c-13.84,0-20,12.09-20,25v14.91h9.81v12.76H761.58V340.18Z"/><path class="cls-3" d="M819.75,340.18h9.94v-43H819.08V284.43h27.68v55.76h9.81V353H819.76V340.18Zm9.81-82.62h17.2v15.18h-17.2Z"/><path class="cls-3" d="M867.77,297.19H857.29V284.43h11V265.75h16.53v18.68h15.58v12.76H884.84v28.89c0,11.69,8.87,13.3,13.7,13.3,1.88,0,3.09-.13,3.09-.13v14a31.64,31.64,0,0,1-5.24.4c-9.67,0-28.62-2.82-28.62-25.8V297.19Z"/><path class="cls-3" d="M923.85,367.19a12.74,12.74,0,0,0,12.09-7.93l1.88-4.3-23.51-57.77h-8.2V284.43h33.72v12.76h-8.06l12.5,34.66a30.64,30.64,0,0,1,1.48,7.12h.4a35.87,35.87,0,0,1,1.88-7.12l12.36-34.66h-7.93V284.43h32.38v12.76h-7.79l-25.26,64.62c-5.24,13.57-15.45,19.35-27.14,19.35a31.36,31.36,0,0,1-16.66-4.7L913.5,364A17.8,17.8,0,0,0,923.85,367.19Z"/><path class="cls-4" d="M262.34,119.9H153.7a22.43,22.43,0,0,0-19.43,11.22L80,225.2a22.43,22.43,0,0,0,0,22.44l54.32,94.08a22.45,22.45,0,0,0,19.43,11.22H262.33a22.43,22.43,0,0,0,19.43-11.22l54.32-94.08a22.43,22.43,0,0,0,0-22.44l-54.32-94.08A22.42,22.42,0,0,0,262.34,119.9Z"/><g class="cls-5"><path class="cls-6" d="M336.09,225.2l-54.32-94.08a22.45,22.45,0,0,0-19.43-11.22H196.83l-36.15,62.61a22.43,22.43,0,0,0,0,22.44L215,299a22.45,22.45,0,0,0,19.43,11.22h65.51l36.15-62.61A22.43,22.43,0,0,0,336.09,225.2Z"/></g></g></g></svg>