<svg xmlns="http://www.w3.org/2000/svg" viewBox="0 0 825.31 685.18"><defs><style>.cls-1{isolation:isolate;}.cls-2{fill:#a6bfa0;}.cls-3{fill:#6b9560;}.cls-4{mix-blend-mode:multiply;}.cls-5{fill:#a6a6a6;}.cls-6{fill:#0d0d0d;}</style></defs><g class="cls-1"><g id="Logo"><path class="cls-2" d="M343.06,77.21H234.43A22.45,22.45,0,0,0,215,88.43l-54.32,94.08a22.5,22.5,0,0,0,0,22.45L215,299a22.45,22.45,0,0,0,19.44,11.22H343.06A22.45,22.45,0,0,0,362.5,299L416.81,205a22.45,22.45,0,0,0,0-22.45L362.5,88.43A22.45,22.45,0,0,0,343.06,77.21Z"/><path class="cls-3" d="M262.34,119.9H153.7a22.44,22.44,0,0,0-19.43,11.22L80,225.2a22.45,22.45,0,0,0,0,22.45l54.32,94.08A22.44,22.44,0,0,0,153.7,353H262.34a22.45,22.45,0,0,0,19.43-11.22l54.32-94.08a22.45,22.45,0,0,0,0-22.45l-54.32-94.08A22.45,22.45,0,0,0,262.34,119.9Z"/><g class="cls-4"><path class="cls-5" d="M336.09,225.2l-54.32-94.08a22.45,22.45,0,0,0-19.43-11.22H196.82l-36.15,62.61a22.48,22.48,0,0,0,0,22.44L215,299a22.45,22.45,0,0,0,19.44,11.22h65.51l36.15-62.61A22.45,22.45,0,0,0,336.09,225.2Z"/></g><path class="cls-6" d="M171.76,482.17c10.48,0,19.34-4.56,19.34-17.19v-4.3a33,33,0,0,1,.27-3.63h-.27c-4,6.05-9.94,9.54-19.08,9.54-19.75,0-30.76-15.85-30.76-34.66s10.61-34.13,30.36-34.13c8.2,0,17.47,3.09,21.23,10.35h.27a9.12,9.12,0,0,1-.27-2.29c0-3.63,2.42-6.45,7.79-6.45H217.7v12.77h-6.58c-1.75,0-3,.94-3,2.68v48.91c0,23.51-18.27,32.38-36.14,32.38a55.58,55.58,0,0,1-24.45-5.92l5.24-12.62A44.33,44.33,0,0,0,171.76,482.17Zm19.75-50.11c0-15.58-7.8-19.75-16.93-19.75-10.35,0-16.13,7.52-16.13,19.08,0,12,6.19,20.82,17.2,20.82C183.71,452.21,191.51,447.51,191.51,432.06Z"/><path class="cls-6" d="M225.48,455.17h10v-40a2.69,2.69,0,0,0-3-2.95h-7.66V399.41h17.87c6,0,9.14,2.56,9.14,8.33v4a31,31,0,0,1-.27,4.3h.27c3.09-9.81,11.28-17.6,21.76-17.6a19.48,19.48,0,0,1,3.09.27v16.8a30.21,30.21,0,0,0-4.16-.27c-13.84,0-20,12.09-20,25v14.91h9.81v12.76H225.48Z"/><path class="cls-6" d="M318.24,425.61h4.3v-2.28c0-8.74-5.51-11.83-12.63-11.83-10.21,0-19.35,6.59-19.35,6.59l-6.31-11.83a46.57,46.57,0,0,1,27.14-8.46c18.4,0,28.21,9.54,28.21,27v27.4a2.63,2.63,0,0,0,3,3h6.18v12.76H332.62c-6.32,0-8.74-3.36-8.74-7.25v-.81a13.07,13.07,0,0,1,.41-3.49H324a23.86,23.86,0,0,1-21.63,13.17c-11.69,0-22.71-6.86-22.71-20.83C279.68,427.76,307.22,425.61,318.24,425.61Zm-11.42,31.17c9.27,0,15.85-9.94,15.85-18.54V436h-2.82c-6.72,0-23,1.07-23,11.42C296.88,452.48,300.51,456.78,306.82,456.78Z"/><path class="cls-6" d="M360.79,482V415.13a2.69,2.69,0,0,0-3-2.95h-7.65V399.41h17.6c6.31,0,8.46,3,8.46,6.45v.4c0,1.62-.14,3.1-.14,3.1h.27s5.92-11.56,22-11.56c18.54,0,30.36,14.65,30.36,35.87,0,21.77-13.3,35.88-31.3,35.88a23.9,23.9,0,0,1-19.75-9.68h-.27a40,40,0,0,1,.4,5.91V482h9.94V494.8H350.85V482Zm33.59-26.87c9.4,0,17.19-7.66,17.19-21.23,0-13-7-21.49-17.06-21.49-8.87,0-17.2,6.44-17.2,21.63C377.31,444.69,383.23,455.17,394.38,455.17Z"/><path class="cls-6" d="M433.41,455.17h9.94V385.31H432.73V372.54h27.68v33.32a39.22,39.22,0,0,1-.4,5.78h.27a26.73,26.73,0,0,1,23.64-13.84c15.18,0,23.92,7.93,23.92,26.07v31.3h9.94v12.76h-27V427.36c0-8.33-2.14-14-10.74-14-12.1,0-19.62,10.48-19.62,23.1v18.68h9.81v12.76H433.41Z"/><path class="cls-6" d="M556.35,397.8c19.75,0,30.5,14.38,30.5,32.51,0,2-.4,5.78-.4,5.78H539c1.08,12.63,10.21,19.08,20.56,19.08,11.15,0,19.88-7.26,19.88-7.26L586,460a43.6,43.6,0,0,1-27.67,9.54c-22.71,0-36.82-16.4-36.82-35.88C521.55,412.58,535.8,397.8,556.35,397.8ZM569.25,426c-.27-9.4-6-15-13.3-15-8.73,0-14.91,6-16.53,15Z"/><path class="cls-6" d="M594.59,455.17h9.94v-40a2.68,2.68,0,0,0-2.95-2.95h-7.66V399.41h18c6.05,0,8.87,2.82,8.87,7.66v3.09a18.91,18.91,0,0,1-.27,3h.27c.8-2.15,8.06-15.32,25.26-15.32,14.64,0,23,7.93,23,26.07v31.3H679v12.76H652.09V427.36c0-8.33-2.28-14-10.88-14-12.36,0-19.62,11.82-19.62,23.78v18h9.81v12.76H594.59Z"/><path class="cls-6" d="M717.6,397.8c19.75,0,30.5,14.38,30.5,32.51,0,2-.4,5.78-.4,5.78H700.27c1.08,12.63,10.21,19.08,20.56,19.08,11.15,0,19.88-7.26,19.88-7.26l6.58,12.1a43.57,43.57,0,0,1-27.67,9.54c-22.71,0-36.82-16.4-36.82-35.88C682.8,412.58,697.05,397.8,717.6,397.8ZM730.5,426c-.27-9.4-6-15-13.3-15-8.73,0-14.91,6-16.53,15Z"/><path class="cls-6" d="M141,556.91H155.5v4c0,4.71,6.31,7.12,13.44,7.12,6.85,0,11.68-2.41,11.68-7,0-5.78-6.44-7.26-15.58-10.62-10.08-3.49-21.63-8.19-21.63-21.22,0-14.51,14.51-19.62,27-19.62,10,0,24.72,3.9,24.72,14.24v8.73H180.49V528.7c0-3.5-4-5.64-10.08-5.64-5.37,0-9.94,1.88-9.94,6.18,0,5.64,6.72,7.92,14.38,10.21,10.48,3.36,22.84,7.65,22.84,21.09,0,13.84-13.17,20.82-28.89,20.82-12.49,0-27.81-5.37-27.81-16.52Z"/><path class="cls-6" d="M239.52,509.62c19.75,0,30.5,14.38,30.5,32.51,0,2-.4,5.78-.4,5.78H222.19C223.27,560.54,232.4,567,242.75,567c11.15,0,19.88-7.26,19.88-7.26l6.59,12.1a43.64,43.64,0,0,1-27.68,9.53c-22.71,0-36.81-16.39-36.81-35.87C204.73,524.4,219,509.62,239.52,509.62Zm12.9,28.21c-.27-9.4-6-15-13.3-15-8.73,0-14.91,6-16.52,15Z"/><path class="cls-6" d="M314.59,509.62c11.42,0,28.08,4.3,28.08,16.39v9.41H327.89v-4.57c0-4.57-7-6.72-12.76-6.72-12.5,0-20.16,8.6-20.16,21.09,0,14.11,9.81,21.77,21.5,21.77,9.67,0,17.6-5.38,21.36-8.33l6.05,12.09c-4.71,4.43-15.32,10.61-28.35,10.61-20,0-37.75-13.56-37.75-35.73C277.78,525.2,293.49,509.62,314.59,509.62Z"/><path class="cls-6" d="M359.84,524H349.22V511.23H376.9v41.11c0,8.2,2.15,13.84,10.75,13.84,11.82,0,18.94-12.09,18.94-24.45V524H396.11V511.23h27.55v52.94a2.68,2.68,0,0,0,2.95,3h6.58v12.63H416.27c-6,0-8.87-2.82-8.87-7.66v-2.55c0-1.74.13-3.22.13-3.22h-.27c-.8,2.28-7.79,15-25,15-13.71,0-22.44-7.39-22.44-26.06Z"/><path class="cls-6" d="M440.61,567h9.94V527a2.68,2.68,0,0,0-2.95-3h-7.66V511.23h17.87c6,0,9.13,2.55,9.13,8.33v4a32.16,32.16,0,0,1-.26,4.3h.26c3.09-9.81,11.29-17.6,21.77-17.6a19.48,19.48,0,0,1,3.09.27v16.79a31.42,31.42,0,0,0-4.17-.26c-13.83,0-20,12.09-20,25V567h9.8v12.76H440.61Z"/><path class="cls-6" d="M498.78,567h10V524H498.11V511.23h27.68V567h9.81v12.76H498.78Zm9.81-82.63h17.2v15.18h-17.2Z"/><path class="cls-6" d="M546.8,524H536.32V511.23h11V492.56h16.52v18.67h15.59V524H563.86v28.88c0,11.69,8.87,13.3,13.71,13.3,1.88,0,3.09-.13,3.09-.13v14a31.64,31.64,0,0,1-5.24.4c-9.67,0-28.62-2.82-28.62-25.79Z"/><path class="cls-6" d="M602.88,594A12.73,12.73,0,0,0,615,586.07l1.88-4.3L593.34,524h-8.19V511.23h33.72V524h-8.06l12.49,34.66a30.64,30.64,0,0,1,1.48,7.12h.4a35.49,35.49,0,0,1,1.89-7.12L639.42,524H631.5V511.23h32.38V524h-7.8l-25.25,64.62C625.59,602.19,615.38,608,603.69,608A31.32,31.32,0,0,1,587,603.26l5.51-12.49A17.71,17.71,0,0,0,602.88,594Z"/></g></g></svg>