<svg xmlns="http://www.w3.org/2000/svg" viewBox="0 0 497.03 430.16"><defs><style>.cls-1{isolation:isolate;}.cls-2{fill:#a6bfa0;}.cls-3{fill:#6b9560;}.cls-4{mix-blend-mode:multiply;}.cls-5{fill:#a6a6a6;}</style></defs><g class="cls-1"><g id="Logo"><path class="cls-2" d="M343.06,77.21H234.43A22.45,22.45,0,0,0,215,88.43l-54.32,94.08a22.5,22.5,0,0,0,0,22.45L215,299a22.45,22.45,0,0,0,19.44,11.22H343.06A22.45,22.45,0,0,0,362.5,299L416.81,205a22.45,22.45,0,0,0,0-22.45L362.5,88.43A22.45,22.45,0,0,0,343.06,77.21Z"/><path class="cls-3" d="M262.34,119.9H153.7a22.44,22.44,0,0,0-19.43,11.22L80,225.2a22.45,22.45,0,0,0,0,22.45l54.32,94.08A22.44,22.44,0,0,0,153.7,353H262.34a22.45,22.45,0,0,0,19.43-11.22l54.32-94.08a22.45,22.45,0,0,0,0-22.45l-54.32-94.08A22.45,22.45,0,0,0,262.34,119.9Z"/><g class="cls-4"><path class="cls-5" d="M336.09,225.2l-54.32-94.08a22.45,22.45,0,0,0-19.43-11.22H196.82l-36.15,62.61a22.48,22.48,0,0,0,0,22.44L215,299a22.45,22.45,0,0,0,19.44,11.22h65.51l36.15-62.61A22.45,22.45,0,0,0,336.09,225.2Z"/></g></g></g></svg>